<svg width="55" height="51" viewBox="0 0 55 51" fill="none" xmlns="http://www.w3.org/2000/svg">
<path d="M25.75 22.25L33.25 29.75M50.7498 12.25L28.172 34.828C26.1007 36.899 22.743 36.899 20.6719 34.828C18.6008 32.7568 18.6008 29.399 20.6719 27.328L43.2498 4.74995C45.3208 2.67895 48.6785 2.67888 50.7498 4.7498C52.821 6.82085 52.821 10.1788 50.7498 12.25ZM22.8495 40.375C22.8495 44.8625 19.2119 48.5 14.7246 48.5H3.25L3.77575 48.2372C6.36572 46.9422 7.6569 43.9788 6.84168 41.2C6.68113 40.653 6.58487 40.0838 6.64442 39.5168C7.07322 35.433 10.5272 32.25 14.7246 32.25C19.2119 32.25 22.8495 35.8878 22.8495 40.375Z" stroke="black" stroke-width="5" stroke-linecap="round" stroke-linejoin="round"/>
</svg>
