<svg width="41" height="40" viewBox="0 0 41 51" fill="none" xmlns="http://www.w3.org/2000/svg">
<path d="M38 48C38 47.1575 37.9545 46.3232 37.8658 45.5M37.8658 45.5H13M37.8658 45.5C37.4748 41.8772 36.2435 38.4675 34.3448 35.5M3 3C3 3.84252 3.04542 4.67677 3.13425 5.5M3.13425 5.5H28M3.13425 5.5C3.52515 9.12273 4.75647 12.5325 6.65515 15.5M3 48C3 37.6415 9.86677 28.538 19.8267 25.6925L21.1733 25.3075C31.1333 22.462 38 13.3585 38 3M21.75 15.5H6.65515M6.65515 15.5C9.6296 20.1488 14.2418 23.712 19.8267 25.3075L21.1733 25.6925C26.7583 27.288 31.3705 30.8512 34.3448 35.5M19.25 35.5H34.3448" stroke="black" stroke-width="3" stroke-linecap="round" stroke-linejoin="round"/>
</svg>
