<svg width="60" height="60" viewBox="0 0 60 60" fill="none" xmlns="http://www.w3.org/2000/svg">
<path d="M35.8436 25.0546C35.8872 25.2076 35.0218 25.6269 34.9033 25.6759C34.5641 25.8159 34.2005 25.8916 33.8336 25.8955C33.0516 25.9038 32.2667 25.5961 31.7086 25.0462C30.5659 23.9203 30.5497 22.0243 31.6693 20.8802C31.1388 20.7289 30.5792 20.6462 30.0002 20.6462C26.6436 20.6462 23.9225 23.3673 23.9225 26.7239C23.9224 30.0803 26.6436 32.8014 30.0001 32.8014C33.3566 32.8014 36.0776 30.0803 36.0776 26.7237C36.0775 26.1446 35.9948 25.5852 35.8436 25.0546Z" fill="black"/>
<path d="M43.7057 25.6231H41.8043C41.2044 19.6391 36.1397 14.9511 30.0002 14.9511C23.8606 14.9511 18.7959 19.639 18.196 25.6231H16.2945C14.8606 25.6231 13.6939 26.7897 13.6939 28.2237V51.3614C13.6939 54.1627 15.973 56.4416 18.7742 56.4416H41.226C44.0272 56.4416 46.3062 54.1627 46.3062 51.3614V28.2237C46.3062 26.7897 45.1396 25.6231 43.7057 25.6231ZM20.3633 26.7418C20.3633 26.7413 20.3633 26.7409 20.3633 26.7405C20.4038 21.4602 24.7102 17.1766 29.9999 17.1766C35.2896 17.1766 39.5962 21.46 39.6366 26.7405C39.6366 26.741 39.6366 26.7414 39.6366 26.7418C39.6367 26.7658 39.6373 26.7897 39.6385 26.8153C39.6385 32.1301 35.3146 36.4539 29.9998 36.4539C29.1694 36.4539 28.3632 36.3485 27.5937 36.1499C23.4393 35.0785 20.3612 31.2994 20.3615 26.8137C20.3626 26.7897 20.3632 26.7658 20.3633 26.7418ZM41.226 54.2161H18.7742C17.2 54.2161 15.9193 52.9356 15.9193 51.3614V28.2237C15.9193 28.0169 16.0876 27.8486 16.2944 27.8486H18.1805C18.1832 27.8793 18.1878 27.9096 18.1906 27.9403C18.4551 30.7392 19.7616 33.4269 21.7894 35.3725C23.8271 37.3277 26.5842 38.5244 29.406 38.6642C32.4547 38.8152 35.5337 37.7385 37.8267 35.7234C40.0684 33.7533 41.5282 30.9125 41.8092 27.94C41.8122 27.9093 41.8169 27.8792 41.8193 27.8484H43.7053C43.9122 27.8484 44.0804 28.0167 44.0804 28.2235V51.3613H44.0809C44.0807 52.9356 42.8002 54.2161 41.226 54.2161Z" fill="black"/>
<path d="M44.0204 0H15.9795C11.3614 0 7.60403 3.75726 7.60403 8.37561V10.0364C7.60403 10.6509 8.1022 11.1491 8.71673 11.1491H10.8999C9.49872 12.5388 8.62931 14.4638 8.62931 16.5887V49.8553C8.62931 55.4492 13.1802 60 18.774 60H41.2258C46.8196 60 51.3704 55.4492 51.3704 49.8553V16.5887C51.3704 14.464 50.501 12.5389 49.0998 11.1491H51.2831C51.8977 11.1491 52.3958 10.6509 52.3958 10.0364V8.37561C52.3961 3.75726 48.6388 0 44.0204 0ZM49.1452 16.5887V49.8553C49.1452 54.2221 45.5926 57.7745 41.226 57.7745H18.7742C14.4075 57.7745 10.855 54.222 10.855 49.8553V16.5887C10.855 13.5902 13.2936 11.1507 16.2918 11.1491H43.7087C46.7065 11.1506 49.1452 13.5902 49.1452 16.5887ZM43.7085 8.92358C43.7076 8.92358 43.7066 8.92358 43.7057 8.92358H16.2944C16.2935 8.92358 16.2925 8.92358 16.2916 8.92358H9.82942V8.37549C9.82942 4.98433 12.5885 2.22539 15.9795 2.22539H44.0204C47.4115 2.22539 50.1706 4.98421 50.1706 8.37549V8.92358H43.7085Z" fill="black"/>
</svg>
