<svg width="60" height="60" viewBox="0 0 60 60" fill="none" xmlns="http://www.w3.org/2000/svg">
<path d="M46.25 22.5001H41.25M41.25 22.5001H36.25M41.25 22.5001V17.5M41.25 22.5001V27.5" stroke="black" stroke-width="3.75" stroke-linecap="round"/>
<path d="M30 13.9353L28.6305 15.2159C28.985 15.5951 29.4807 15.8103 30 15.8103C30.5193 15.8103 31.015 15.5951 31.3695 15.2159L30 13.9353ZM6.62898 34.2053C7.16488 35.0915 8.31763 35.3753 9.2037 34.8395C10.0898 34.3035 10.3737 33.1508 9.83775 32.2648L6.62898 34.2053ZM16.3433 40.4268C15.6209 39.6848 14.4338 39.669 13.6919 40.3915C12.95 41.1138 12.9342 42.301 13.6567 43.0428L16.3433 40.4268ZM6.875 23.2938C6.875 16.0322 10.0441 11.5433 13.965 10.008C17.8773 8.47608 23.351 9.56946 28.6305 15.2159L31.3695 12.6547C25.3995 6.26961 18.3731 4.25468 12.5978 6.51613C6.83105 8.77418 3.125 14.9802 3.125 23.2938H6.875ZM38.7772 49.9025C42.5082 46.8748 46.9785 42.817 50.5317 38.285C54.049 33.799 56.875 28.5885 56.875 23.2937H53.125C53.125 27.3223 50.9268 31.7035 47.5808 35.971C44.271 40.1925 40.039 44.0493 36.4142 46.9908L38.7772 49.9025ZM56.875 23.2937C56.875 14.9802 53.169 8.77416 47.4022 6.51613C41.627 4.25468 34.6005 6.26961 28.6305 12.6547L31.3695 15.2159C36.649 9.56946 42.1227 8.47606 46.035 10.008C49.9557 11.5433 53.125 16.0322 53.125 23.2937H56.875ZM21.2228 49.9025C24.4014 52.482 26.6057 54.375 30 54.375V50.625C28.1928 50.625 27.0673 49.8158 23.5858 46.9908L21.2228 49.9025ZM36.4142 46.9908C32.9327 49.8158 31.8072 50.625 30 50.625V54.375C33.3943 54.375 35.5985 52.482 38.7772 49.9025L36.4142 46.9908ZM9.83775 32.2648C7.97027 29.177 6.875 26.1375 6.875 23.2938H3.125C3.125 27.0743 4.56615 30.7948 6.62898 34.2053L9.83775 32.2648ZM23.5858 46.9908C21.2933 45.1303 18.7473 42.8955 16.3433 40.4268L13.6567 43.0428C16.1887 45.643 18.8499 47.977 21.2228 49.9025L23.5858 46.9908Z" fill="black"/>
</svg>
