<svg width="60" height="60" viewBox="0 0 60 60" fill="none" xmlns="http://www.w3.org/2000/svg">
<path d="M5 35C5 25.572 5 20.8579 7.92893 17.9289C10.8579 15 15.5719 15 25 15H35C44.428 15 49.1422 15 52.071 17.9289C53.704 19.5619 54.4265 21.7497 54.7463 25M55 35C55 44.428 55 49.1422 52.071 52.071C49.1422 55 44.428 55 35 55H25C15.572 55 10.8579 55 7.92893 52.071C6.29598 50.438 5.57343 48.2502 5.25373 45" stroke="black" stroke-width="3.75" stroke-linecap="round"/>
<path d="M40 15C40 10.286 40 7.92892 38.5355 6.46447C37.071 5 34.714 5 30 5C25.286 5 22.9289 5 21.4645 6.46447C20 7.92892 20 10.286 20 15" stroke="black" stroke-width="3.75"/>
<path d="M42.5 22.5C42.5 23.8807 41.3807 25 40 25C38.6193 25 37.5 23.8807 37.5 22.5C37.5 21.1193 38.6193 20 40 20C41.3807 20 42.5 21.1193 42.5 22.5Z" fill="black"/>
<path d="M22.5 22.5C22.5 23.8807 21.3807 25 20 25C18.6193 25 17.5 23.8807 17.5 22.5C17.5 21.1193 18.6193 20 20 20C21.3807 20 22.5 21.1193 22.5 22.5Z" fill="black"/>
</svg>
