<svg width="125" height="108" viewBox="0 0 125 108" fill="none" xmlns="http://www.w3.org/2000/svg">
<path d="M52.8197 12.355C58.3952 12.355 62.9148 16.5583 62.9148 21.7437C62.9148 26.9291 58.3952 31.1324 52.8197 31.1324C47.2441 31.1324 42.724 26.9291 42.724 21.7437C42.724 16.5583 47.2441 12.355 52.8197 12.355ZM15.788 69.2499L15.695 69.1634C15.2762 68.904 14.9042 68.6875 14.5785 68.3415L15.695 80.2398L1.64511 98.7577C-0.355131 101.44 0.342615 105.075 3.1336 106.935C6.01807 108.795 9.92604 108.146 11.9263 105.551L27.0926 85.2156C27.8834 84.1773 28.3951 82.7925 28.2091 81.4081L27.6974 75.6539L15.788 69.2499ZM57.5184 107.973H117.718L106.459 75.3075C106.459 75.3075 100.086 76.7788 87.4786 89.2391C87.1996 89.4985 86.8739 89.8015 86.5949 90.061L56.1696 73.7063C56.6814 72.7979 56.7744 71.7591 56.5884 70.6342L45.7945 33.4255C44.9107 29.791 41.4215 27.0219 37.3276 27.0219H17.1835C15.695 27.0219 14.206 27.7574 13.3685 28.9692L3.32009 45.1939C2.0176 47.1411 2.80834 49.6502 4.90207 50.7751L16.1605 56.7892L14.672 59.1254C12.8578 61.8945 13.8812 65.4425 16.9517 66.9998L42.2123 80.5423V102.002C42.2123 105.247 45.0037 107.843 48.493 107.843C51.9822 107.843 54.7737 105.247 54.7737 102.002V77.5137L82.7332 92.5706C76.9642 95.6426 70.3583 96.2051 65.6596 98.8007C59.8906 102.003 57.5184 107.973 57.5184 107.973ZM18.3 53.3712L10.9028 49.3907L19.6955 35.2858H29.5584L18.3 53.3712ZM34.5366 62.1109L41.515 50.7751L46.7255 68.6005L34.5366 62.1109ZM102.997 0.00411867V0L102.99 0.00228819L102.984 0V0.00411867L81.4814 6.66808V33.3399C81.4814 33.3399 81.7368 45.678 102.991 53.3442C124.245 45.678 124.5 33.3399 124.5 33.3399V6.66808L102.997 0.00411867ZM100.203 34.6318L89.72 24.8839L93.5246 21.3455L100.208 27.5633L112.464 16.1986L116.262 19.7411L100.203 34.6318Z" fill="black"/>
</svg>
